<?xml version="1.0" encoding="UTF-8" standalone="no"?>
<!DOCTYPE svg PUBLIC "-//W3C//DTD SVG 1.1//EN" "http://www.w3.org/Graphics/SVG/1.1/DTD/svg11.dtd">
<svg version="1.1" xmlns="http://www.w3.org/2000/svg" xmlns:xlink="http://www.w3.org/1999/xlink" preserveAspectRatio="xMidYMid meet" viewBox="0 0 640 640" width="640" height="640"><defs><path d="M428.14 256.49C439.08 208.14 434.22 169.67 412.78 157.36C407.84 154.47 402.06 153.1 395.75 153.1C395.75 154.8 395.75 168.36 395.75 170.05C399.25 170.05 402.06 170.74 404.42 172.03C414.76 177.96 419.24 200.54 415.75 229.58C414.91 236.72 413.54 244.25 411.87 251.93C396.97 248.28 380.7 245.46 363.6 243.64C353.33 229.58 342.69 216.8 331.97 205.63C356.75 182.6 380.02 169.98 395.83 169.98C395.83 168.28 395.83 154.72 395.83 153.03C374.92 153.03 347.56 167.92 319.89 193.77C292.22 168.08 264.85 153.33 243.94 153.33C243.94 155.02 243.94 168.59 243.94 170.28C259.68 170.28 283.02 182.82 307.8 205.71C297.16 216.88 286.51 229.58 276.4 243.64C259.22 245.46 242.96 248.28 228.06 252C226.31 244.4 225.01 237.03 224.1 229.96C220.53 200.92 224.94 178.34 235.2 172.33C237.48 170.97 240.45 170.36 243.94 170.36C243.94 168.66 243.94 155.1 243.94 153.41C237.56 153.41 231.78 154.77 226.76 157.66C205.4 169.98 200.61 208.37 211.64 256.56C164.35 271.16 133.56 294.5 133.56 319.13C133.56 343.83 164.5 367.25 211.94 381.77C200.99 430.11 205.86 468.58 227.3 480.89C232.24 483.78 238.01 485.15 244.4 485.15C265.3 485.15 292.67 470.25 320.34 444.4C348.01 470.1 375.38 484.85 396.28 484.85C402.67 484.85 408.45 483.48 413.46 480.59C434.83 468.27 439.62 429.88 428.59 381.69C475.72 367.17 506.51 343.76 506.51 319.13C506.51 294.42 475.57 271.01 428.14 256.49ZM397.27 298.45C394.16 292.37 390.89 286.29 387.31 280.2C383.82 274.12 380.09 268.19 376.37 262.42C387.16 264.01 397.58 265.99 407.54 268.42C404.72 278.23 401.23 288.34 397.27 298.45ZM354.4 378.42C343.07 379.41 331.59 379.94 320.04 379.94C308.56 379.94 297.08 379.41 285.83 378.5C279.52 369.45 273.36 359.8 267.43 349.61C261.66 339.65 256.41 329.54 251.62 319.35C256.33 309.17 261.66 298.98 267.36 289.02C273.29 278.76 279.37 269.03 285.68 259.98C297 259 308.48 258.46 320.04 258.46C331.52 258.46 343 259 354.25 259.91C360.56 268.95 366.71 278.61 372.64 288.79C378.42 298.75 383.67 308.86 388.45 319.05C383.67 329.24 378.42 339.42 372.72 349.38C366.79 359.64 360.71 369.37 354.4 378.42ZM407.76 369.75C397.8 372.19 387.31 374.24 376.44 375.84C380.17 369.98 383.89 363.98 387.39 357.82C390.89 351.74 394.16 345.58 397.27 339.5C401.38 349.69 404.87 359.87 407.76 369.75ZM299.06 396.28C305.9 396.59 312.89 396.82 319.96 396.82C327.11 396.82 334.18 396.66 341.1 396.28C334.25 405.18 327.18 413.31 320.19 420.61C313.12 413.31 306.05 405.18 299.06 396.28ZM232.46 369.83C235.28 360.02 238.77 349.91 242.73 339.8C245.84 345.88 249.11 351.97 252.69 358.05C256.26 364.13 259.91 370.06 263.63 375.84C252.84 374.24 242.42 372.26 232.46 369.83ZM340.94 241.97C334.1 241.66 327.11 241.43 320.04 241.43C312.89 241.43 305.82 241.59 298.9 241.97C305.75 233.07 312.82 224.94 319.81 217.64C326.88 224.94 333.95 233.07 340.94 241.97ZM252.61 280.43C249.11 286.51 245.84 292.6 242.73 298.68C238.62 288.49 235.13 278.3 232.24 268.42C242.2 266.06 252.69 264.01 263.56 262.42C259.83 268.27 256.11 274.27 252.61 280.43ZM150.44 319.13C150.44 307.19 167.85 292.06 194.76 280.66C201.3 277.85 208.44 275.34 215.82 272.98C220.15 287.88 225.85 303.39 232.92 319.28C225.93 335.09 220.3 350.52 216.04 365.35C208.52 362.99 201.37 360.4 194.76 357.59C167.85 346.11 150.44 331.06 150.44 319.13ZM224.33 408.68C225.17 401.53 226.54 394 228.21 386.33C243.11 389.98 259.38 392.79 276.48 394.61C286.74 408.68 297.38 421.45 308.1 432.62C283.32 455.66 260.06 468.27 244.25 468.27C240.83 468.2 237.94 467.51 235.66 466.22C225.32 460.29 220.83 437.71 224.33 408.68ZM404.87 465.92C402.59 467.29 399.63 467.89 396.13 467.89C380.4 467.89 357.06 455.35 332.28 432.47C342.92 421.29 353.56 408.6 363.67 394.54C380.85 392.71 397.12 389.9 412.02 386.17C413.77 393.85 415.14 401.23 415.97 408.3C419.55 437.33 415.14 459.91 404.87 465.92ZM424.18 365.27C419.85 350.37 414.15 334.86 407.08 318.97C414.07 303.16 419.7 287.73 423.96 272.91C431.48 275.26 438.63 277.85 445.32 280.66C472.23 292.14 489.64 307.19 489.64 319.13C489.56 331.06 472.15 346.19 445.24 357.59C438.7 360.4 431.56 362.91 424.18 365.27Z" id="b1BMVVCG2F"></path><path d="M319.96 284.39C300.78 284.39 285.22 299.94 285.22 319.13C285.22 338.31 300.78 353.87 319.96 353.87C339.15 353.87 354.7 338.31 354.7 319.13C354.7 299.94 339.15 284.39 319.96 284.39Z" id="a7mbRJqW01"></path><path d="" id="b2wPbjoxaE"></path><path d="M297.59 319.13L297.59 319.13L272.86 319.13L297.59 319.13Z" id="b2XS8QG7Gk"></path><path d="" id="a2dhf6mbkB"></path><path d="M344.12 294.56C340.8 291.37 336.94 288.87 332.64 287.12C328.18 285.3 323.45 284.39 318.57 284.39C313.7 284.39 308.96 285.3 304.51 287.12C300.21 288.87 296.34 291.37 293.03 294.56C289.71 297.75 287.1 301.47 285.28 305.6C283.4 309.89 282.44 314.44 282.44 319.13C282.44 323.82 283.4 328.37 285.28 332.65C287.1 336.78 289.71 340.5 293.03 343.69C296.34 346.88 300.21 349.39 304.51 351.13C308.96 352.95 313.7 353.87 318.57 353.87C323.45 353.87 328.18 352.95 332.64 351.13C336.94 349.39 340.8 346.88 344.12 343.69C347.44 340.5 350.04 336.78 351.86 332.65C353.75 328.37 354.7 323.82 354.7 319.13C354.7 314.44 353.75 309.89 351.86 305.6C350.04 301.47 347.44 297.75 344.12 294.56Z" id="c3Ixxa4le"></path><path d="M285.28 332.65C287.1 336.78 289.71 340.5 293.03 343.69C296.34 346.88 300.21 349.39 304.51 351.13C308.96 352.95 313.7 353.87 318.57 353.87C323.45 353.87 328.18 352.95 332.64 351.13C336.94 349.39 340.8 346.88 344.12 343.69C347.44 340.5 350.04 336.78 351.86 332.65C353.62 328.66 354.57 324.45 354.69 320.1C349.87 320.1 325.8 320.1 282.46 320.1C283.17 325.81 284.12 329.99 285.28 332.65Z" id="a5IsN4D0zu"></path><path d="M354.7 319.13C354.7 317.83 354.63 316.55 354.49 315.29C352.69 315.55 350.11 315.9 346.87 316.24C340.7 316.9 330.79 317.68 318.57 317.68C306.36 317.68 296.45 316.9 290.28 316.24C287.03 315.9 284.46 315.55 282.66 315.29C282.52 316.55 282.44 317.83 282.44 319.13C282.44 320.27 282.5 321.42 282.62 322.55C288.48 323.4 301.39 324.91 318.57 324.91C335.76 324.91 348.67 323.4 354.53 322.55C354.64 321.42 354.7 320.27 354.7 319.13Z" id="cmyShfCx4"></path><path d="M318.57 327.81C314.42 327.81 311.05 324.57 311.05 320.57C311.05 316.58 314.42 313.34 318.57 313.34C322.73 313.34 326.1 316.58 326.1 320.57C326.1 324.57 322.73 327.81 318.57 327.81Z" id="a8PckKk8Y"></path><path d="M305.02 320.57C305.02 327.76 311.1 333.6 318.57 333.6C326.04 333.6 332.12 327.76 332.12 320.57C332.12 313.39 326.04 307.55 318.57 307.55C311.1 307.55 305.02 313.39 305.02 320.57ZM312.55 320.57C312.55 317.38 315.25 314.78 318.57 314.78C321.89 314.78 324.59 317.38 324.59 320.57C324.59 323.77 321.89 326.36 318.57 326.36C315.25 326.36 312.55 323.77 312.55 320.57Z" id="esgaZQ6Mk"></path><path d="M344.12 294.56C340.8 291.37 336.94 288.87 332.64 287.12C328.18 285.3 323.45 284.39 318.57 284.39C318.07 284.39 317.57 284.4 317.07 284.42C321.41 284.58 325.63 285.49 329.63 287.12C333.93 288.87 337.79 291.37 341.11 294.56C344.43 297.75 347.03 301.47 348.85 305.6C350.74 309.89 351.69 314.44 351.69 319.13C351.69 323.82 350.74 328.37 348.85 332.65C347.03 336.78 344.43 340.5 341.11 343.69C337.79 346.88 333.93 349.39 329.63 351.14C325.63 352.76 321.41 353.67 317.07 353.84C317.57 353.86 318.07 353.87 318.57 353.87C323.45 353.87 328.18 352.95 332.64 351.14C336.94 349.39 340.8 346.88 344.12 343.69C347.44 340.5 350.04 336.78 351.86 332.65C353.75 328.37 354.7 323.82 354.7 319.13C354.7 314.44 353.75 309.89 351.86 305.6C350.04 301.47 347.44 297.75 344.12 294.56Z" id="e10qrgCDIE"></path><path d="M293.03 343.69C296.34 346.88 300.21 349.39 304.51 351.13C308.96 352.95 313.7 353.87 318.57 353.87C319.08 353.87 319.58 353.86 320.08 353.84C315.73 353.67 311.52 352.76 307.52 351.13C303.22 349.39 299.35 346.88 296.04 343.69C292.72 340.5 290.12 336.78 288.29 332.65C286.41 328.37 285.46 323.82 285.46 319.13C285.46 314.44 286.41 309.89 288.29 305.6C290.11 301.47 292.72 297.75 296.04 294.56C299.35 291.37 303.22 288.87 307.52 287.12C311.52 285.49 315.73 284.58 320.08 284.41C319.58 284.4 319.08 284.39 318.57 284.39C313.7 284.39 308.96 285.3 304.51 287.12C300.21 288.87 296.34 291.37 293.03 294.56C289.71 297.75 287.1 301.47 285.28 305.6C283.4 309.89 282.44 314.44 282.44 319.13C282.44 323.82 283.4 328.37 285.28 332.65C287.1 336.78 289.71 340.5 293.03 343.69Z" id="bNeNL95RK"></path></defs><g><g><g><use xlink:href="#b1BMVVCG2F" opacity="1" fill="#61dafb" fill-opacity="1"></use><g><use xlink:href="#b1BMVVCG2F" opacity="1" fill-opacity="0" stroke="#000000" stroke-width="1" stroke-opacity="0"></use></g></g><g><use xlink:href="#a7mbRJqW01" opacity="1" fill="#61dafb" fill-opacity="1"></use><g><use xlink:href="#a7mbRJqW01" opacity="1" fill-opacity="0" stroke="#000000" stroke-width="1" stroke-opacity="0"></use></g></g><g><use xlink:href="#b2wPbjoxaE" opacity="1" fill="#61dafb" fill-opacity="1"></use><g><use xlink:href="#b2wPbjoxaE" opacity="1" fill-opacity="0" stroke="#000000" stroke-width="1" stroke-opacity="0"></use></g></g><g><use xlink:href="#b2XS8QG7Gk" opacity="1" fill="#020200" fill-opacity="1"></use></g><g><g><use xlink:href="#a2dhf6mbkB" opacity="1" fill-opacity="0" stroke="#000000" stroke-width="1" stroke-opacity="1"></use></g></g><g><use xlink:href="#c3Ixxa4le" opacity="1" fill="#ed5564" fill-opacity="1"></use><g><use xlink:href="#c3Ixxa4le" opacity="1" fill-opacity="0" stroke="#000000" stroke-width="1" stroke-opacity="0"></use></g></g><g><use xlink:href="#a5IsN4D0zu" opacity="1" fill="#e6e9ed" fill-opacity="1"></use><g><use xlink:href="#a5IsN4D0zu" opacity="1" fill-opacity="0" stroke="#000000" stroke-width="1" stroke-opacity="0"></use></g></g><g><use xlink:href="#cmyShfCx4" opacity="1" fill="#434a54" fill-opacity="1"></use><g><use xlink:href="#cmyShfCx4" opacity="1" fill-opacity="0" stroke="#000000" stroke-width="1" stroke-opacity="0"></use></g></g><g><use xlink:href="#a8PckKk8Y" opacity="1" fill="#e6e9ed" fill-opacity="1"></use><g><use xlink:href="#a8PckKk8Y" opacity="1" fill-opacity="0" stroke="#000000" stroke-width="1" stroke-opacity="0"></use></g></g><g><use xlink:href="#esgaZQ6Mk" opacity="1" fill="#434a54" fill-opacity="1"></use><g><use xlink:href="#esgaZQ6Mk" opacity="1" fill-opacity="0" stroke="#000000" stroke-width="1" stroke-opacity="0"></use></g></g><g><use xlink:href="#e10qrgCDIE" opacity="1" fill="#ffffff" fill-opacity="1"></use><g><use xlink:href="#e10qrgCDIE" opacity="1" fill-opacity="0" stroke="#000000" stroke-width="1" stroke-opacity="0"></use></g></g><g><use xlink:href="#bNeNL95RK" opacity="1" fill="#000000" fill-opacity="1"></use><g><use xlink:href="#bNeNL95RK" opacity="1" fill-opacity="0" stroke="#000000" stroke-width="1" stroke-opacity="0"></use></g></g></g></g></svg>