<?xml version="1.0" standalone="no"?>
<!DOCTYPE svg PUBLIC "-//W3C//DTD SVG 20010904//EN"
 "http://www.w3.org/TR/2001/REC-SVG-20010904/DTD/svg10.dtd">
<svg version="1.0" xmlns="http://www.w3.org/2000/svg"
 width="1280.000000pt" height="1073.000000pt" viewBox="0 0 1280.000000 1073.000000"
 preserveAspectRatio="xMidYMid meet">
<metadata>
Created by potrace 1.15, written by Peter Selinger 2001-2017
</metadata>
<g transform="translate(0.000000,1073.000000) scale(0.100000,-0.100000)"
fill="#000000" stroke="none">
<path d="M2670 10725 c0 -2 43 -82 96 -177 688 -1235 1411 -2070 2246 -2590
l97 -60 -35 -50 c-69 -101 -90 -210 -109 -563 -12 -227 -33 -406 -49 -423 -3
-2 -771 406 -1708 907 -936 500 -1708 911 -1715 913 -7 2 -328 -522 -752
-1229 -407 -678 -737 -1233 -733 -1233 11 0 3207 -742 3211 -746 1 -1 -6 -36
-18 -76 -60 -212 -72 -261 -65 -268 5 -4 92 -44 194 -88 l185 -80 51 -98 52
-99 -355 -508 c-196 -279 -354 -509 -352 -511 2 -2 275 -112 607 -246 331
-134 602 -247 602 -250 0 -6 -540 -745 -581 -796 -6 -7 94 -73 309 -203 l319
-192 -25 -82 c-23 -75 -25 -98 -26 -287 -1 -269 19 -648 39 -725 31 -118 126
-252 253 -358 122 -102 311 -235 380 -268 100 -48 233 -77 410 -89 153 -11
158 -12 177 -38 125 -166 226 -203 307 -112 20 23 42 56 48 75 12 37 30 45
103 45 26 0 105 11 175 25 70 14 186 32 257 41 72 8 182 21 245 29 274 34 405
29 698 -24 87 -16 215 -35 283 -41 68 -6 185 -18 259 -26 74 -9 201 -18 281
-21 l147 -6 6 -47 c12 -91 84 -157 156 -144 145 25 383 266 589 596 279 447
481 979 485 1278 1 120 -11 165 -56 210 -25 26 -37 30 -81 30 -68 -1 -116 -23
-214 -103 l-81 -66 -124 128 c-67 70 -135 136 -150 147 l-27 19 24 160 c114
748 144 1422 80 1786 -33 186 -90 335 -158 414 l-35 40 91 59 c121 79 225 181
298 290 131 195 187 353 204 576 10 141 -12 564 -41 765 -20 144 -27 234 -31
453 -4 203 -3 272 6 272 7 0 76 -11 154 -24 763 -131 1587 -87 2616 140 190
41 551 131 558 137 3 4 -703 330 -859 396 -979 417 -1747 487 -2525 229 l-123
-40 -95 90 c-52 49 -130 116 -173 148 -42 32 -98 78 -125 100 -67 60 -170 117
-432 242 -264 126 -363 163 -507 191 -202 38 -327 46 -758 46 -526 0 -545 -3
-865 -150 -88 -40 -187 -81 -220 -90 -33 -9 -78 -23 -99 -31 -22 -8 -40 -13
-41 -11 -1 1 -12 29 -25 62 -209 537 -603 1016 -1130 1374 -333 227 -666 396
-1235 629 -492 201 -565 230 -565 227z m2585 -5814 c14 -23 -15 -18 -30 5 -16
25 -16 25 4 15 11 -6 22 -15 26 -20z m-1040 -1009 c-4 -5 -155 78 -155 85 0 3
9 18 21 34 l20 29 58 -73 c32 -39 57 -73 56 -75z m194 -1254 c-11 -40 -28 -90
-37 -111 l-17 -37 -45 39 -45 38 75 71 c41 39 78 71 82 72 4 0 -2 -33 -13 -72z"/>
<path d="M9210 4530 c-124 -22 -192 -91 -193 -193 -1 -133 113 -227 276 -227
101 0 145 44 134 137 -7 63 -43 93 -107 92 -25 -1 -34 -3 -20 -6 59 -9 68 -14
85 -49 18 -39 14 -77 -12 -106 -42 -47 -203 -1 -250 71 -27 41 -30 106 -7 140
42 59 178 77 352 46 198 -34 252 -102 224 -282 -14 -90 -41 -143 -147 -298
-99 -144 -132 -212 -140 -285 l-5 -55 16 49 c17 55 91 168 154 236 73 79 153
193 176 250 33 80 47 180 35 245 -23 124 -109 199 -258 224 -85 14 -261 20
-313 11z"/>
<path d="M11262 4409 c-96 -16 -140 -52 -108 -88 22 -24 20 -31 -8 -31 -36 0
-80 -15 -200 -69 -311 -140 -428 -442 -270 -693 33 -51 66 -124 108 -238 28
-77 31 -95 30 -190 -2 -105 -25 -228 -75 -389 -36 -116 -31 -111 -125 -111
-54 0 -103 7 -145 20 -115 36 -120 44 -251 375 -110 277 -157 332 -338 390
-47 15 -98 37 -113 48 -27 18 -31 19 -61 4 -23 -10 -37 -12 -50 -5 -13 7 -21
5 -31 -9 -29 -38 -29 -127 0 -220 6 -18 3 -23 -10 -23 -29 0 -104 -42 -142
-79 -38 -37 -83 -122 -83 -159 0 -33 71 -96 138 -122 31 -12 71 -28 87 -35 17
-8 42 -17 57 -20 65 -16 115 -88 183 -265 21 -52 46 -112 56 -132 21 -42 103
-170 128 -201 107 -134 173 -185 306 -238 47 -19 85 -37 85 -40 0 -4 -21 -65
-46 -135 -135 -377 -185 -628 -164 -816 11 -91 45 -171 117 -276 87 -125 219
-293 292 -372 18 -19 44 -50 58 -68 l25 -32 628 0 628 0 71 81 c39 44 113 133
165 197 255 321 303 441 265 672 -11 62 -10 71 8 97 134 190 249 464 287 684
41 236 43 356 11 545 -57 332 -233 549 -500 619 -76 19 -247 19 -340 0 -38 -8
-72 -15 -74 -15 -2 0 -1 28 1 63 8 95 76 274 183 485 18 34 28 62 24 62 -5 0
-6 24 -3 53 17 149 -81 330 -234 430 -69 45 -212 110 -269 122 l-32 6 25 22
c31 27 25 50 -22 72 -67 32 -170 41 -272 24z m966 -1564 c282 -84 387 -581
227 -1074 -45 -139 -95 -237 -95 -187 0 18 -127 368 -160 441 -5 11 -25 63
-45 115 -20 52 -40 104 -45 115 -16 35 -77 197 -105 280 -15 44 -31 89 -35
100 -15 35 -60 188 -57 191 2 2 30 10 63 18 79 19 189 19 252 1z"/>
</g>
</svg>
